<mxfile host="app.diagrams.net" modified="2021-10-25T12:51:09.854Z" agent="5.0 (Windows NT 10.0; Win64; x64) AppleWebKit/537.36 (KHTML, like Gecko) Chrome/94.0.4606.81 Safari/537.36" etag="gueCRsA83TRT9cWeTg0D" version="15.5.9" type="github">
  <diagram id="GDMP_vEG5RRETmi2Cn6S" name="Page-1">
    <mxGraphModel dx="1422" dy="762" grid="1" gridSize="10" guides="1" tooltips="1" connect="1" arrows="1" fold="1" page="1" pageScale="1" pageWidth="850" pageHeight="1100" math="0" shadow="0">
      <root>
        <mxCell id="0" />
        <mxCell id="1" parent="0" />
        <mxCell id="1s8ufy4f7ip8xousPr05-5" value="" style="edgeStyle=orthogonalEdgeStyle;rounded=0;orthogonalLoop=1;jettySize=auto;html=1;" parent="1" source="1s8ufy4f7ip8xousPr05-2" target="1s8ufy4f7ip8xousPr05-4" edge="1">
          <mxGeometry relative="1" as="geometry" />
        </mxCell>
        <mxCell id="1s8ufy4f7ip8xousPr05-2" value="Enter a number or operator(+,-,/,*,c,q):" style="rounded=1;whiteSpace=wrap;html=1;" parent="1" vertex="1">
          <mxGeometry x="340" y="30" width="120" height="60" as="geometry" />
        </mxCell>
        <mxCell id="KmGCE57oq_zuWYv6HeW--6" value="" style="edgeStyle=orthogonalEdgeStyle;rounded=0;orthogonalLoop=1;jettySize=auto;html=1;" edge="1" parent="1" source="1s8ufy4f7ip8xousPr05-4" target="CedihasmcYs-21EmaN2X-1">
          <mxGeometry relative="1" as="geometry" />
        </mxCell>
        <mxCell id="KmGCE57oq_zuWYv6HeW--9" value="no" style="edgeStyle=orthogonalEdgeStyle;rounded=0;orthogonalLoop=1;jettySize=auto;html=1;" edge="1" parent="1" source="1s8ufy4f7ip8xousPr05-4" target="KmGCE57oq_zuWYv6HeW--8">
          <mxGeometry relative="1" as="geometry" />
        </mxCell>
        <mxCell id="1s8ufy4f7ip8xousPr05-4" value="is it a number" style="rhombus;whiteSpace=wrap;html=1;" parent="1" vertex="1">
          <mxGeometry x="360" y="130" width="80" height="80" as="geometry" />
        </mxCell>
        <mxCell id="KmGCE57oq_zuWYv6HeW--7" value="yes" style="edgeStyle=orthogonalEdgeStyle;rounded=0;orthogonalLoop=1;jettySize=auto;html=1;" edge="1" parent="1" source="CedihasmcYs-21EmaN2X-1" target="1s8ufy4f7ip8xousPr05-4">
          <mxGeometry relative="1" as="geometry" />
        </mxCell>
        <mxCell id="CedihasmcYs-21EmaN2X-1" value="store number&amp;nbsp;" style="shape=cylinder3;whiteSpace=wrap;html=1;boundedLbl=1;backgroundOutline=1;size=15;direction=south;" parent="1" vertex="1">
          <mxGeometry x="180" y="140" width="80" height="60" as="geometry" />
        </mxCell>
        <mxCell id="CedihasmcYs-21EmaN2X-9" value="" style="edgeStyle=orthogonalEdgeStyle;rounded=0;orthogonalLoop=1;jettySize=auto;html=1;" parent="1" target="CedihasmcYs-21EmaN2X-8" edge="1">
          <mxGeometry relative="1" as="geometry">
            <mxPoint x="400" y="580" as="sourcePoint" />
          </mxGeometry>
        </mxCell>
        <mxCell id="CedihasmcYs-21EmaN2X-12" value="" style="edgeStyle=orthogonalEdgeStyle;rounded=0;orthogonalLoop=1;jettySize=auto;html=1;" parent="1" source="CedihasmcYs-21EmaN2X-8" target="CedihasmcYs-21EmaN2X-11" edge="1">
          <mxGeometry relative="1" as="geometry" />
        </mxCell>
        <mxCell id="CedihasmcYs-21EmaN2X-8" value="enter number for operands" style="shape=parallelogram;perimeter=parallelogramPerimeter;whiteSpace=wrap;html=1;fixedSize=1;" parent="1" vertex="1">
          <mxGeometry x="340" y="630" width="120" height="60" as="geometry" />
        </mxCell>
        <mxCell id="CedihasmcYs-21EmaN2X-15" value="" style="edgeStyle=orthogonalEdgeStyle;rounded=0;orthogonalLoop=1;jettySize=auto;html=1;" parent="1" source="CedihasmcYs-21EmaN2X-10" target="CedihasmcYs-21EmaN2X-14" edge="1">
          <mxGeometry relative="1" as="geometry" />
        </mxCell>
        <mxCell id="CedihasmcYs-21EmaN2X-10" value="save number&amp;nbsp;" style="shape=cylinder3;whiteSpace=wrap;html=1;boundedLbl=1;backgroundOutline=1;size=15;direction=south;" parent="1" vertex="1">
          <mxGeometry x="360" y="820" width="80" height="60" as="geometry" />
        </mxCell>
        <mxCell id="CedihasmcYs-21EmaN2X-13" value="" style="edgeStyle=orthogonalEdgeStyle;rounded=0;orthogonalLoop=1;jettySize=auto;html=1;" parent="1" source="CedihasmcYs-21EmaN2X-11" target="CedihasmcYs-21EmaN2X-10" edge="1">
          <mxGeometry relative="1" as="geometry" />
        </mxCell>
        <mxCell id="CedihasmcYs-21EmaN2X-11" value="is it a number" style="rhombus;whiteSpace=wrap;html=1;" parent="1" vertex="1">
          <mxGeometry x="360" y="720" width="80" height="80" as="geometry" />
        </mxCell>
        <mxCell id="CedihasmcYs-21EmaN2X-17" value="" style="edgeStyle=orthogonalEdgeStyle;rounded=0;orthogonalLoop=1;jettySize=auto;html=1;" parent="1" source="CedihasmcYs-21EmaN2X-14" target="CedihasmcYs-21EmaN2X-16" edge="1">
          <mxGeometry relative="1" as="geometry" />
        </mxCell>
        <mxCell id="CedihasmcYs-21EmaN2X-14" value="calculate it" style="whiteSpace=wrap;html=1;aspect=fixed;" parent="1" vertex="1">
          <mxGeometry x="360" y="910" width="80" height="80" as="geometry" />
        </mxCell>
        <mxCell id="CedihasmcYs-21EmaN2X-16" value="display number (end)" style="rounded=1;whiteSpace=wrap;html=1;" parent="1" vertex="1">
          <mxGeometry x="340" y="1030" width="120" height="60" as="geometry" />
        </mxCell>
        <mxCell id="KmGCE57oq_zuWYv6HeW--2" value="c" style="edgeStyle=orthogonalEdgeStyle;rounded=0;orthogonalLoop=1;jettySize=auto;html=1;exitX=1;exitY=0.5;exitDx=0;exitDy=0;" edge="1" parent="1" source="xvrQLs0MpoV4c28ULeX--1" target="KmGCE57oq_zuWYv6HeW--1">
          <mxGeometry relative="1" as="geometry" />
        </mxCell>
        <mxCell id="KmGCE57oq_zuWYv6HeW--4" value="q" style="edgeStyle=orthogonalEdgeStyle;rounded=0;orthogonalLoop=1;jettySize=auto;html=1;entryX=0.5;entryY=0;entryDx=0;entryDy=0;" edge="1" parent="1" source="xvrQLs0MpoV4c28ULeX--1" target="KmGCE57oq_zuWYv6HeW--5">
          <mxGeometry relative="1" as="geometry">
            <mxPoint x="530" y="360" as="targetPoint" />
            <Array as="points">
              <mxPoint x="560" y="360" />
            </Array>
          </mxGeometry>
        </mxCell>
        <mxCell id="xvrQLs0MpoV4c28ULeX--1" value="c or q" style="rhombus;whiteSpace=wrap;html=1;" parent="1" vertex="1">
          <mxGeometry x="490" y="250" width="80" height="80" as="geometry" />
        </mxCell>
        <mxCell id="KmGCE57oq_zuWYv6HeW--1" value="clear" style="rhombus;whiteSpace=wrap;html=1;" vertex="1" parent="1">
          <mxGeometry x="610" y="250" width="80" height="80" as="geometry" />
        </mxCell>
        <mxCell id="KmGCE57oq_zuWYv6HeW--5" value="end&amp;nbsp;" style="rounded=1;whiteSpace=wrap;html=1;" vertex="1" parent="1">
          <mxGeometry x="580" y="380" width="120" height="60" as="geometry" />
        </mxCell>
        <mxCell id="KmGCE57oq_zuWYv6HeW--10" value="yes" style="edgeStyle=orthogonalEdgeStyle;rounded=0;orthogonalLoop=1;jettySize=auto;html=1;" edge="1" parent="1" source="KmGCE57oq_zuWYv6HeW--8" target="xvrQLs0MpoV4c28ULeX--1">
          <mxGeometry relative="1" as="geometry" />
        </mxCell>
        <mxCell id="KmGCE57oq_zuWYv6HeW--8" value="is it a operand?" style="rhombus;whiteSpace=wrap;html=1;" vertex="1" parent="1">
          <mxGeometry x="360" y="250" width="80" height="80" as="geometry" />
        </mxCell>
      </root>
    </mxGraphModel>
  </diagram>
</mxfile>
